<svg xmlns="http://www.w3.org/2000/svg" viewBox="0 0 1040 420" fill="none">
  <defs>
    <linearGradient id="card" x1="120" y1="74" x2="920" y2="346" gradientUnits="userSpaceOnUse">
      <stop stop-color="#FFFFFF" stop-opacity="0.92"/>
      <stop offset="1" stop-color="#DBEAFE" stop-opacity="0.55"/>
    </linearGradient>
    <linearGradient id="line" x1="180" y1="210" x2="860" y2="210" gradientUnits="userSpaceOnUse">
      <stop stop-color="#60A5FA"/>
      <stop offset="1" stop-color="#2563EB"/>
    </linearGradient>
  </defs>

  <rect x="60" y="60" width="920" height="300" rx="18" fill="url(#card)" stroke="#93C5FD" stroke-opacity="0.35"/>

  <!-- Nodes -->
  <g>
    <rect x="110" y="120" width="160" height="90" rx="14" fill="#0F172A" fill-opacity="0.04" stroke="#93C5FD" stroke-opacity="0.35"/>
    <text x="190" y="172" text-anchor="middle" font-family="ui-sans-serif,system-ui" font-size="18" fill="#0F172A" fill-opacity="0.85">Client</text>
  </g>

  <g>
    <rect x="320" y="100" width="190" height="130" rx="14" fill="#2563EB" fill-opacity="0.10" stroke="#2563EB" stroke-opacity="0.25"/>
    <text x="415" y="156" text-anchor="middle" font-family="ui-sans-serif,system-ui" font-size="18" fill="#0F172A" fill-opacity="0.85">Gateway</text>
    <text x="415" y="182" text-anchor="middle" font-family="ui-sans-serif,system-ui" font-size="13" fill="#0F172A" fill-opacity="0.65">HTTP API / Auth / Metrics</text>
  </g>

  <g>
    <rect x="560" y="100" width="190" height="130" rx="14" fill="#2563EB" fill-opacity="0.10" stroke="#2563EB" stroke-opacity="0.25"/>
    <text x="655" y="156" text-anchor="middle" font-family="ui-sans-serif,system-ui" font-size="18" fill="#0F172A" fill-opacity="0.85">Scheduler</text>
    <text x="655" y="182" text-anchor="middle" font-family="ui-sans-serif,system-ui" font-size="13" fill="#0F172A" fill-opacity="0.65">Queue / Retry / Workers</text>
  </g>

  <g>
    <rect x="800" y="88" width="170" height="154" rx="14" fill="#0F172A" fill-opacity="0.04" stroke="#93C5FD" stroke-opacity="0.35"/>
    <text x="885" y="134" text-anchor="middle" font-family="ui-sans-serif,system-ui" font-size="16" fill="#0F172A" fill-opacity="0.85">Runtime</text>
    <text x="885" y="158" text-anchor="middle" font-family="ui-sans-serif,system-ui" font-size="13" fill="#0F172A" fill-opacity="0.65">Firecracker / Docker</text>

    <rect x="822" y="176" width="58" height="46" rx="12" fill="#2563EB" fill-opacity="0.10" stroke="#2563EB" stroke-opacity="0.20"/>
    <rect x="888" y="176" width="58" height="46" rx="12" fill="#2563EB" fill-opacity="0.10" stroke="#2563EB" stroke-opacity="0.20"/>
    <rect x="822" y="124" width="58" height="46" rx="12" fill="#2563EB" fill-opacity="0.10" stroke="#2563EB" stroke-opacity="0.20"/>
    <rect x="888" y="124" width="58" height="46" rx="12" fill="#2563EB" fill-opacity="0.10" stroke="#2563EB" stroke-opacity="0.20"/>
  </g>

  <!-- Arrows -->
  <path d="M270 165h40" stroke="url(#line)" stroke-width="3" stroke-linecap="round"/>
  <path d="M510 165h40" stroke="url(#line)" stroke-width="3" stroke-linecap="round"/>
  <path d="M750 165h40" stroke="url(#line)" stroke-width="3" stroke-linecap="round"/>
  <path d="M308 165l-10-6v12l10-6z" fill="#2563EB"/>
  <path d="M548 165l-10-6v12l10-6z" fill="#2563EB"/>
  <path d="M788 165l-10-6v12l10-6z" fill="#2563EB"/>

  <!-- Storage -->
  <g>
    <rect x="220" y="260" width="600" height="74" rx="14" fill="#0F172A" fill-opacity="0.03" stroke="#93C5FD" stroke-opacity="0.28"/>
    <text x="520" y="302" text-anchor="middle" font-family="ui-sans-serif,system-ui" font-size="14" fill="#0F172A" fill-opacity="0.70">
      PostgreSQL · Redis · NATS
    </text>
  </g>

  <path d="M655 230v28H520" stroke="#2563EB" stroke-opacity="0.6" stroke-width="2.5" stroke-linecap="round"/>
  <path d="M520 258l6-10h-12l6 10z" fill="#2563EB" fill-opacity="0.75"/>
</svg>

