<svg xmlns="http://www.w3.org/2000/svg" viewBox="0 0 860 600" fill="none">
  <defs>
    <linearGradient id="bg" x1="96" y1="70" x2="764" y2="530" gradientUnits="userSpaceOnUse">
      <stop stop-color="#EEF2FF"/>
      <stop offset="0.55" stop-color="#DBEAFE"/>
      <stop offset="1" stop-color="#FFFFFF"/>
    </linearGradient>
    <linearGradient id="stroke" x1="120" y1="88" x2="720" y2="512" gradientUnits="userSpaceOnUse">
      <stop stop-color="#93C5FD" stop-opacity="0.65"/>
      <stop offset="1" stop-color="#1D4ED8" stop-opacity="0.25"/>
    </linearGradient>
    <filter id="shadow" x="0" y="0" width="860" height="600" filterUnits="userSpaceOnUse">
      <feDropShadow dx="0" dy="28" stdDeviation="24" flood-color="#0F172A" flood-opacity="0.18"/>
    </filter>
  </defs>

  <g filter="url(#shadow)">
    <rect x="92" y="74" width="676" height="452" rx="22" fill="url(#bg)"/>
    <rect x="92.75" y="74.75" width="674.5" height="450.5" rx="21.25" stroke="url(#stroke)" stroke-width="1.5"/>

    <!-- top bar -->
    <rect x="92" y="74" width="676" height="56" rx="22" fill="#FFFFFF" fill-opacity="0.7"/>
    <circle cx="126" cy="102" r="7" fill="#EF4444" fill-opacity="0.75"/>
    <circle cx="150" cy="102" r="7" fill="#F59E0B" fill-opacity="0.75"/>
    <circle cx="174" cy="102" r="7" fill="#22C55E" fill-opacity="0.75"/>
    <rect x="218" y="92" width="300" height="20" rx="10" fill="#0F172A" fill-opacity="0.06"/>

    <!-- left column cards -->
    <g>
      <rect x="124" y="156" width="292" height="104" rx="16" fill="#FFFFFF" fill-opacity="0.8"/>
      <rect x="124" y="156" width="292" height="104" rx="16" stroke="#93C5FD" stroke-opacity="0.35"/>
      <rect x="146" y="178" width="120" height="12" rx="6" fill="#0F172A" fill-opacity="0.16"/>
      <rect x="146" y="202" width="220" height="10" rx="5" fill="#0F172A" fill-opacity="0.10"/>
      <rect x="146" y="222" width="180" height="10" rx="5" fill="#0F172A" fill-opacity="0.10"/>
      <rect x="146" y="242" width="92" height="10" rx="5" fill="#2563EB" fill-opacity="0.20"/>
    </g>

    <g>
      <rect x="124" y="276" width="292" height="104" rx="16" fill="#FFFFFF" fill-opacity="0.8"/>
      <rect x="124" y="276" width="292" height="104" rx="16" stroke="#93C5FD" stroke-opacity="0.35"/>
      <rect x="146" y="298" width="150" height="12" rx="6" fill="#0F172A" fill-opacity="0.16"/>
      <rect x="146" y="322" width="220" height="10" rx="5" fill="#0F172A" fill-opacity="0.10"/>
      <rect x="146" y="342" width="180" height="10" rx="5" fill="#0F172A" fill-opacity="0.10"/>
      <rect x="146" y="362" width="112" height="10" rx="5" fill="#2563EB" fill-opacity="0.20"/>
    </g>

    <!-- right column: runtime tiles + chart -->
    <g>
      <rect x="444" y="156" width="296" height="224" rx="16" fill="#FFFFFF" fill-opacity="0.8"/>
      <rect x="444" y="156" width="296" height="224" rx="16" stroke="#93C5FD" stroke-opacity="0.35"/>

      <rect x="468" y="178" width="112" height="54" rx="14" fill="#2563EB" fill-opacity="0.10"/>
      <rect x="468" y="178" width="112" height="54" rx="14" stroke="#2563EB" stroke-opacity="0.20"/>
      <rect x="592" y="178" width="124" height="54" rx="14" fill="#2563EB" fill-opacity="0.10"/>
      <rect x="592" y="178" width="124" height="54" rx="14" stroke="#2563EB" stroke-opacity="0.20"/>

      <rect x="468" y="246" width="112" height="54" rx="14" fill="#2563EB" fill-opacity="0.10"/>
      <rect x="468" y="246" width="112" height="54" rx="14" stroke="#2563EB" stroke-opacity="0.20"/>
      <rect x="592" y="246" width="124" height="54" rx="14" fill="#2563EB" fill-opacity="0.10"/>
      <rect x="592" y="246" width="124" height="54" rx="14" stroke="#2563EB" stroke-opacity="0.20"/>

      <rect x="468" y="318" width="248" height="36" rx="14" fill="#0F172A" fill-opacity="0.06"/>
      <path d="M482 342 C510 320, 542 352, 570 332 C598 312, 626 350, 700 322" stroke="#2563EB" stroke-width="3" stroke-linecap="round" stroke-opacity="0.85"/>
      <path d="M482 342 C510 320, 542 352, 570 332 C598 312, 626 350, 700 322" stroke="#93C5FD" stroke-width="7" stroke-linecap="round" stroke-opacity="0.25"/>
    </g>

    <!-- bottom: API strip -->
    <rect x="124" y="404" width="616" height="92" rx="16" fill="#0F172A" fill-opacity="0.05"/>
    <rect x="148" y="432" width="220" height="12" rx="6" fill="#0F172A" fill-opacity="0.14"/>
    <rect x="148" y="454" width="420" height="10" rx="5" fill="#0F172A" fill-opacity="0.10"/>
    <rect x="148" y="474" width="280" height="10" rx="5" fill="#0F172A" fill-opacity="0.10"/>
    <rect x="612" y="436" width="104" height="34" rx="17" fill="#2563EB" fill-opacity="0.20"/>
  </g>
</svg>

